<svg width="40" height="40" viewBox="0 0 40 40" fill="none" xmlns="http://www.w3.org/2000/svg">
<path d="M20 40C31.0457 40 40 31.0457 40 20C40 8.9543 31.0457 0 20 0C8.9543 0 0 8.9543 0 20C0 31.0457 8.9543 40 20 40Z" fill="#F0F0F0"/>
<path d="M39.8307 17.3913H22.6088L22.6087 0.169297C21.7548 0.058125 20.8841 0 20 0C19.1159 0 18.2452 0.058125 17.3913 0.169297V17.3912L0.169297 17.3913C0.058125 18.2452 0 19.1157 0 20C0 20.8843 0.058125 21.7548 0.169297 22.6087H17.3912L17.3913 39.8307C18.2452 39.9419 19.1159 40 20 40C20.8841 40 21.7548 39.942 22.6087 39.8307V22.6088L39.8307 22.6087C39.9419 21.7548 40 20.8843 40 20C40 19.1157 39.9419 18.2452 39.8307 17.3913Z" fill="#D80027"/>
</svg>
