<svg width="27" height="27" viewBox="0 0 27 27" fill="none" xmlns="http://www.w3.org/2000/svg">
<g clip-path="url(#clip0_205_910)">
<path d="M13.3398 0.269897C6.00646 0.269897 0.0615234 6.19326 0.0615234 13.5C0.0615234 19.7043 4.34881 24.9106 10.1323 26.3405V17.5431H7.39431V13.5H10.1323V11.7578C10.1323 7.25484 12.1777 5.16767 16.6147 5.16767C17.456 5.16767 18.9076 5.33225 19.5014 5.4963V9.16103C19.188 9.12822 18.6436 9.11182 17.9675 9.11182C15.7904 9.11182 14.9491 9.93367 14.9491 12.0701V13.5H19.2863L18.5411 17.5431H14.9491V26.6332C21.524 25.842 26.6186 20.2642 26.6186 13.5C26.618 6.19326 20.6731 0.269897 13.3398 0.269897Z" fill="white"/>
</g>
<defs>
<clipPath id="clip0_205_910">
<rect width="26.5565" height="26.4601" fill="white" transform="translate(0.0615234 0.269897)"/>
</clipPath>
</defs>
</svg>
