<svg width="28" height="27" viewBox="0 0 28 27" fill="none" xmlns="http://www.w3.org/2000/svg">
<g clip-path="url(#clip0_205_902)">
<path d="M13.8962 2.65234C17.444 2.65234 17.8641 2.66785 19.2593 2.72986C20.556 2.78671 21.2563 3.00377 21.7231 3.18465C22.3403 3.42237 22.7864 3.71178 23.248 4.17173C23.7148 4.63685 24.0001 5.07613 24.2387 5.69112C24.4202 6.15624 24.6381 6.85909 24.6951 8.14592C24.7574 9.54128 24.7729 9.95989 24.7729 13.4896C24.7729 17.0245 24.7574 17.4431 24.6951 18.8333C24.6381 20.1253 24.4202 20.823 24.2387 21.2881C24.0001 21.9031 23.7096 22.3476 23.248 22.8075C22.7812 23.2726 22.3403 23.5569 21.7231 23.7946C21.2563 23.9755 20.5509 24.1925 19.2593 24.2494C17.8589 24.3114 17.4388 24.3269 13.8962 24.3269C10.3484 24.3269 9.92826 24.3114 8.533 24.2494C7.2363 24.1925 6.53608 23.9755 6.06927 23.7946C5.45203 23.5569 5.00597 23.2675 4.54434 22.8075C4.07753 22.3424 3.79225 21.9031 3.55366 21.2881C3.37212 20.823 3.15427 20.1202 3.09722 18.8333C3.03498 17.438 3.01942 17.0194 3.01942 13.4896C3.01942 9.95472 3.03498 9.53611 3.09722 8.14592C3.15427 6.85392 3.37212 6.15624 3.55366 5.69112C3.79225 5.07613 4.08271 4.63169 4.54434 4.17173C5.01115 3.70661 5.45203 3.42237 6.06927 3.18465C6.53608 3.00377 7.24149 2.78671 8.533 2.72986C9.92826 2.66785 10.3484 2.65234 13.8962 2.65234ZM13.8962 0.269897C10.2913 0.269897 9.84008 0.285401 8.42408 0.347417C7.01327 0.409433 6.04333 0.636825 5.20307 0.962409C4.32649 1.3035 3.58478 1.75311 2.84825 2.49214C2.10654 3.22599 1.65528 3.96501 1.31295 4.83324C0.986184 5.67562 0.757964 6.63687 0.695722 8.04256C0.63348 9.45859 0.61792 9.90821 0.61792 13.5C0.61792 17.0917 0.63348 17.5413 0.695722 18.9522C0.757964 20.3579 0.986184 21.3243 1.31295 22.1615C1.65528 23.0349 2.10654 23.7739 2.84825 24.5078C3.58478 25.2417 4.32649 25.6964 5.19788 26.0324C6.04333 26.3579 7.00808 26.5853 8.41889 26.6473C9.8349 26.7094 10.2861 26.7249 13.891 26.7249C17.4958 26.7249 17.9471 26.7094 19.3631 26.6473C20.7739 26.5853 21.7438 26.3579 22.5841 26.0324C23.4555 25.6964 24.1972 25.2417 24.9337 24.5078C25.6702 23.7739 26.1267 23.0349 26.4638 22.1667C26.7906 21.3243 27.0188 20.3631 27.0811 18.9574C27.1433 17.5465 27.1589 17.0969 27.1589 13.5051C27.1589 9.91338 27.1433 9.46376 27.0811 8.0529C27.0188 6.6472 26.7906 5.68079 26.4638 4.84357C26.1371 3.96501 25.6858 3.22599 24.9441 2.49214C24.2076 1.75828 23.4659 1.3035 22.5945 0.967577C21.749 0.641993 20.7843 0.414601 19.3735 0.352585C17.9523 0.285401 17.501 0.269897 13.8962 0.269897Z" fill="white"/>
<path d="M13.8961 6.7041C10.1305 6.7041 7.07544 9.74805 7.07544 13.5C7.07544 17.252 10.1305 20.2959 13.8961 20.2959C17.6617 20.2959 20.7168 17.252 20.7168 13.5C20.7168 9.74805 17.6617 6.7041 13.8961 6.7041ZM13.8961 17.9083C11.4531 17.9083 9.47175 15.9341 9.47175 13.5C9.47175 11.0659 11.4531 9.09172 13.8961 9.09172C16.3391 9.09172 18.3205 11.0659 18.3205 13.5C18.3205 15.9341 16.3391 17.9083 13.8961 17.9083Z" fill="white"/>
<path d="M22.579 6.43521C22.579 7.31377 21.8632 8.02179 20.9866 8.02179C20.1049 8.02179 19.3943 7.3086 19.3943 6.43521C19.3943 5.55665 20.1101 4.84863 20.9866 4.84863C21.8632 4.84863 22.579 5.56182 22.579 6.43521Z" fill="white"/>
</g>
<defs>
<clipPath id="clip0_205_902">
<rect width="26.5565" height="26.4601" fill="white" transform="translate(0.61792 0.269897)"/>
</clipPath>
</defs>
</svg>
