<svg width="28" height="27" viewBox="0 0 28 27" fill="none" xmlns="http://www.w3.org/2000/svg">
<g clip-path="url(#clip0_205_912)">
<path d="M25.4689 0.269897H2.03064C0.907878 0.269897 0 1.12262 0 2.17689V24.8179C0 25.8721 0.907878 26.73 2.03064 26.73H25.4689C26.5917 26.73 27.505 25.8721 27.505 24.823V2.17689C27.505 1.12262 26.5917 0.269897 25.4689 0.269897ZM8.16016 22.8179H4.07739V10.1873H8.16016V22.8179ZM6.11878 8.46634C4.80799 8.46634 3.7497 7.44824 3.7497 6.19242C3.7497 4.9366 4.80799 3.9185 6.11878 3.9185C7.42419 3.9185 8.48248 4.9366 8.48248 6.19242C8.48248 7.44308 7.42419 8.46634 6.11878 8.46634ZM23.4383 22.8179H19.3609V16.6783C19.3609 15.2157 19.334 13.3294 17.2389 13.3294C15.117 13.3294 14.7947 14.9263 14.7947 16.5749V22.8179H10.7226V10.1873H14.6335V11.9134H14.6872C15.2298 10.9211 16.5621 9.87203 18.5444 9.87203C22.6755 9.87203 23.4383 12.487 23.4383 15.8876V22.8179Z" fill="white"/>
</g>
<defs>
<clipPath id="clip0_205_912">
<rect width="27.5049" height="26.4601" fill="white" transform="translate(0 0.269897)"/>
</clipPath>
</defs>
</svg>
