<svg width="28" height="27" viewBox="0 0 28 27" fill="none" xmlns="http://www.w3.org/2000/svg">
<g clip-path="url(#clip0_205_911)">
<path d="M19.3961 0.269897H14.9205V18.2934C14.9205 20.441 13.1992 22.205 11.0571 22.205C8.91491 22.205 7.19355 20.441 7.19355 18.2934C7.19355 16.1843 8.87666 14.4586 10.9423 14.382V9.85692C6.39025 9.93358 2.71802 13.6534 2.71802 18.2934C2.71802 22.972 6.46675 26.73 11.0953 26.73C15.7238 26.73 19.4726 22.9336 19.4726 18.2934V9.05158C21.1557 10.2787 23.2213 11.0073 25.4017 11.0457V6.52063C22.0355 6.40558 19.3961 3.64452 19.3961 0.269897Z" fill="white"/>
</g>
<defs>
<clipPath id="clip0_205_911">
<rect width="26.5565" height="26.4601" fill="white" transform="translate(0.504883 0.269897)"/>
</clipPath>
</defs>
</svg>
