<svg width="27" height="27" viewBox="0 0 27 27" fill="none" xmlns="http://www.w3.org/2000/svg">
<g clip-path="url(#clip0_205_901)">
<path d="M26.4665 8.20804C26.4665 8.20804 26.2072 6.38373 25.4084 5.5827C24.397 4.52842 23.2663 4.52326 22.7476 4.46124C19.0338 4.1925 13.458 4.1925 13.458 4.1925H13.4476C13.4476 4.1925 7.8718 4.1925 4.15804 4.46124C3.63935 4.52326 2.50863 4.52842 1.4972 5.5827C0.698429 6.38373 0.444275 8.20804 0.444275 8.20804C0.444275 8.20804 0.174561 10.3528 0.174561 12.4923V14.4975C0.174561 16.637 0.439088 18.7818 0.439088 18.7818C0.439088 18.7818 0.698429 20.6061 1.49201 21.4071C2.50344 22.4614 3.83127 22.4252 4.42256 22.5389C6.54916 22.7404 13.4528 22.8025 13.4528 22.8025C13.4528 22.8025 19.0338 22.7921 22.7476 22.5286C23.2663 22.4665 24.397 22.4614 25.4084 21.4071C26.2072 20.6061 26.4665 18.7818 26.4665 18.7818C26.4665 18.7818 26.7311 16.6422 26.7311 14.4975V12.4923C26.7311 10.3528 26.4665 8.20804 26.4665 8.20804ZM10.709 16.9316V9.49487L17.8824 13.2262L10.709 16.9316Z" fill="white"/>
</g>
<defs>
<clipPath id="clip0_205_901">
<rect width="26.5565" height="26.4601" fill="white" transform="translate(0.174561 0.269897)"/>
</clipPath>
</defs>
</svg>
